<svg xmlns="http://www.w3.org/2000/svg" width="150" height="50" viewBox="0,0,150,50"><path fill="#444" d="M124.73 30.91L124.65 30.83L124.76 30.94Q124.72 29.38 123.90 28.46L123.95 28.51L124.05 28.61Q123.11 27.57 121.66 27.61L121.67 27.62L121.76 27.71Q119.42 27.76 118.58 29.90L118.65 29.97L118.54 29.85Q118.31 30.70 118.28 31.38L118.23 31.34L118.18 31.29Q118.08 36.25 117.17 40.59L117.13 40.56L117.04 40.46Q115.44 41.07 113.58 42.06L113.48 41.96L113.55 42.04Q115.94 35.17 115.67 27.86L115.66 27.86L115.58 27.78Q115.35 20.46 112.80 13.64L112.77 13.62L112.67 13.52Q114.52 14.91 116.53 15.59L116.61 15.67L116.58 15.64Q118.05 21.45 118.24 27.31L118.22 27.29L118.23 27.30Q119.66 25.27 122.36 25.34L122.34 25.32L122.29 25.27Q127.27 25.26 127.38 30.63L127.56 30.81L127.47 30.71Q127.53 36.34 128.90 40.98L129.03 41.11L128.94 41.02Q127.21 40.32 125.46 40.13L125.47 40.13L125.41 40.08Q124.93 36.85 124.81 30.99ZM125.11 40.42L125.02 40.34L125.00 40.32Q126.01 40.42 127.12 40.68L127.11 40.68L127.29 40.85Q127.23 40.91 127.77 42.89L127.75 42.87L127.81 42.94Q130.76 43.86 132.77 45.31L132.75 45.29L132.70 45.23Q130.10 39.55 129.57 33.23L129.47 33.14L129.49 33.15Q129.12 29.39 127.71 27.83L127.75 27.87L127.72 27.84Q127.86 27.91 127.22 27.45L127.13 27.36L127.14 27.38Q126.87 26.84 126.22 26.08L126.18 26.04L126.25 26.03L126.25 26.04Q125.47 25.26 122.35 24.99L122.33 24.97L122.20 24.84Q121.55 24.91 120.14 25.25L120.20 25.31L120.18 25.29Q119.99 20.46 119.65 17.94L119.50 17.80L119.59 17.89Q118.88 17.83 117.40 17.52L117.43 17.55L117.44 17.56Q117.21 16.76 116.94 15.28L116.90 15.23L116.87 15.21Q113.91 14.23 112.05 12.67L112.07 12.69L112.06 12.68Q115.01 19.81 115.27 27.62L115.27 27.61L115.30 27.64Q115.53 35.38 112.98 42.73L113.02 42.76L112.95 42.69Q113.85 42.07 115.00 41.58L115.13 41.71L114.47 44.06L114.46 44.05Q117.41 42.55 119.39 42.36L119.42 42.38L119.40 42.37Q120.11 37.10 120.30 33.14L120.22 33.06L120.21 33.05Q120.36 31.26 122.30 30.16L122.35 30.21L122.36 30.21Q122.74 29.83 123.27 29.87L123.36 29.95L123.25 29.85Q123.56 30.00 123.90 30.04L123.77 29.91L124.21 30.01L124.28 30.07Q124.35 30.53 124.46 30.98L124.48 31.00L124.38 30.90Q124.52 36.91 125.02 40.33Z"/><path d="M15 21 C68 36,70 25,133 39" stroke="#666" fill="none"/><path fill="#333" d="M31.92 34.71L31.85 34.64L32.00 34.79Q31.83 38.20 28.67 39.49L28.77 39.60L28.67 39.49Q26.79 40.32 22.38 40.47L22.35 40.45L22.52 40.61Q17.72 40.72 15.47 39.54L15.46 39.53L15.39 39.46Q13.58 38.18 13.73 34.83L13.73 34.83L13.74 34.84Q13.76 34.21 13.95 32.23L13.95 32.24L13.99 32.28Q14.15 30.72 14.15 29.73L13.98 29.56L14.07 29.65Q14.14 21.73 9.96 14.30L9.82 14.17L9.89 14.24Q11.01 14.86 13.98 15.93L14.00 15.95L13.89 15.84Q16.86 22.65 16.86 30.04L16.98 30.16L16.81 29.99Q16.91 30.70 16.82 31.89L16.81 31.88L16.71 31.77Q16.65 32.99 16.65 33.60L16.69 33.65L16.73 33.68Q16.62 35.86 18.18 36.85L18.28 36.94L18.16 36.83Q19.87 37.69 22.84 37.69L22.83 37.69L22.85 37.71Q25.51 37.74 27.15 36.56L27.13 36.54L27.05 36.46Q28.92 35.13 28.77 32.62L28.92 32.78L28.76 32.61Q28.65 31.21 28.65 29.88L28.82 30.05L28.72 29.94Q28.82 23.00 31.22 16.49L31.07 16.34L33.26 15.80L33.36 15.89Q34.19 15.47 35.29 15.01L35.46 15.18L35.43 15.15Q31.58 22.15 31.58 29.73L31.72 29.87L31.64 29.78Q31.64 30.62 31.78 32.26L31.71 32.20L31.87 32.36Q32.01 34.00 32.01 34.80ZM34.00 35.54L33.99 35.52L34.08 35.61Q33.20 30.66 33.92 25.55L33.87 25.51L33.93 25.56Q34.62 20.31 37.01 15.93L36.97 15.89L37.14 16.06Q36.35 16.18 34.90 16.83L35.00 16.93L34.88 16.81Q35.38 16.09 36.18 14.53L36.08 14.43L36.11 14.46Q32.69 15.72 30.79 16.07L30.86 16.14L30.78 16.06Q28.38 22.52 28.38 29.79L28.43 29.85L28.49 29.91Q28.45 31.24 28.53 32.65L28.49 32.61L28.47 32.59Q28.66 35.03 26.87 36.25L26.79 36.16L26.92 36.30Q25.33 37.26 22.82 37.29L22.95 37.43L22.85 37.32Q20.08 37.37 18.63 36.61L18.67 36.64L18.58 36.56Q18.51 36.07 18.44 35.61L18.43 35.60L18.49 35.67Q18.47 35.19 18.59 34.70L18.61 34.72L18.61 34.72Q18.72 32.28 18.72 29.96L18.79 30.03L18.85 30.09Q18.85 24.27 17.33 18.37L17.31 18.34L17.24 18.28Q16.52 18.16 15.11 17.82L15.16 17.87L15.23 17.94Q14.78 16.58 14.32 15.67L14.18 15.52L14.33 15.67Q11.50 14.79 9.11 13.42L9.25 13.56L9.11 13.42Q13.76 21.04 13.76 29.76L13.83 29.83L13.75 29.75Q13.67 31.31 13.52 33.02L13.61 33.11L13.70 33.20Q13.40 35.53 13.48 36.71L13.40 36.64L13.53 36.76Q13.62 38.64 14.88 39.78L14.93 39.84L14.81 39.72Q15.87 42.26 20.52 42.65L20.43 42.56L20.48 42.61Q22.57 42.76 24.70 42.84L24.72 42.85L24.70 42.83Q30.03 42.98 32.81 42.03L32.82 42.04L32.80 42.02Q34.49 41.23 34.49 39.18L34.56 39.25L34.38 39.08Q34.60 38.15 34.15 35.68Z"/><path d="M20 41 C90 7,73 40,146 14" stroke="#555" fill="none"/><path d="M4 12 C70 44,74 24,139 14" stroke="#888" fill="none"/><path fill="#222" d="M71.22 41.14L71.22 41.14L69.61 41.24L69.53 41.16Q66.22 41.24 65.26 39.10L65.10 38.94L65.15 38.99Q66.26 37.89 67.71 36.79L67.79 36.87L67.73 36.81Q68.42 39.11 71.28 38.95L71.19 38.86L71.25 38.93Q71.99 38.83 73.02 38.60L73.00 38.58L72.96 38.54Q74.00 38.14 73.93 37.19L73.85 37.11L73.94 37.20Q73.75 35.98 71.96 35.29L71.92 35.26L68.21 33.83L68.15 33.77Q65.88 32.49 65.54 28.95L65.46 28.87L65.51 28.92Q65.44 26.91 67.61 26.34L67.62 26.35L67.58 26.30Q68.51 26.06 71.48 26.06L71.39 25.96L71.41 25.99Q76.23 25.93 77.14 28.44L77.18 28.48L77.16 28.46Q76.58 29.06 75.86 29.52L75.96 29.62L74.42 30.44L74.45 30.48Q74.03 28.65 70.80 28.42L70.81 28.43L70.67 28.30Q70.17 28.41 69.14 28.82L69.16 28.84L69.14 28.82Q68.63 29.22 68.63 30.33L68.53 30.23L68.63 30.33Q68.87 31.29 70.69 31.97L70.72 31.99L70.73 32.01Q71.70 32.29 74.36 33.40L74.54 33.57L74.40 33.43Q76.30 34.34 76.49 36.89L76.47 36.88L76.38 36.78Q76.51 37.49 76.44 38.48L76.39 38.43L76.56 38.60Q76.41 39.36 75.83 40.01L75.93 40.10L75.78 39.96Q74.18 41.06 71.14 41.06ZM75.92 43.67L76.01 43.76L76.04 43.79Q76.85 43.72 78.22 43.42L78.28 43.48L78.36 43.56Q79.25 42.70 79.06 41.48L79.21 41.63L79.11 41.53Q79.14 41.07 78.84 39.47L78.76 39.39L78.69 39.32Q78.21 36.45 76.43 35.23L76.46 35.27L76.51 35.31Q75.92 33.85 74.66 33.12L74.59 33.05L74.73 33.20Q73.40 32.70 70.93 31.75L70.85 31.67L70.98 31.80Q71.05 31.26 71.32 31.15L71.32 31.16L71.35 31.18Q72.00 30.77 72.65 30.73L72.61 30.69L72.58 30.66Q73.49 30.73 74.25 31.00L74.16 30.91L74.11 30.93L74.20 30.92L74.62 31.14L74.46 31.02L74.59 31.15Q75.64 31.59 75.83 32.84L75.71 32.73L75.73 32.75Q76.99 31.91 78.90 30.24L78.86 30.20L78.99 30.34Q78.73 29.62 77.74 28.44L77.77 28.47L77.74 28.44Q76.58 25.71 71.48 25.60L71.43 25.55L71.41 25.53Q68.27 25.51 66.29 26.08L66.39 26.18L66.25 26.04Q64.80 26.58 65.03 28.67L65.11 28.75L65.20 28.84Q65.28 30.07 66.20 32.16L66.08 32.04L66.15 32.11Q66.70 33.23 67.73 33.96L67.65 33.88L67.76 33.98Q68.42 35.45 69.72 36.14L69.75 36.17L69.60 36.02Q70.62 36.35 71.57 36.73L71.61 36.77L73.50 37.52L73.48 37.50Q73.07 38.54 71.13 38.43L71.28 38.58L71.15 38.44Q70.80 38.59 69.58 38.29L69.49 38.20L69.48 38.03L69.36 38.13L69.37 38.15Q68.58 37.85 67.93 36.37L67.98 36.41L67.82 36.25Q65.81 37.93 64.70 39.08L64.65 39.02L64.65 39.02Q64.95 39.93 65.98 40.73L65.93 40.68L65.85 40.91L65.80 40.86Q67.22 42.97 71.45 43.35L71.58 43.48L71.52 43.42Q72.72 43.48 75.95 43.70Z"/><path fill="#222" d="M50.80 30.98L50.70 30.87L50.64 30.82Q50.90 29.55 50.08 28.64L49.94 28.50L50.07 28.63Q49.12 27.59 47.67 27.62L47.76 27.71L47.63 27.58Q45.41 27.75 44.57 29.89L44.58 29.90L44.59 29.91Q44.23 30.61 44.19 31.30L44.20 31.30L44.15 31.26Q43.95 36.12 43.04 40.46L43.10 40.52L43.18 40.61Q41.34 40.98 39.48 41.97L39.61 42.10L39.57 42.05Q41.80 35.03 41.53 27.72L41.55 27.74L41.67 27.86Q41.26 20.37 38.71 13.56L38.65 13.50L38.71 13.56Q40.61 15.00 42.63 15.69L42.57 15.63L42.62 15.68Q43.95 21.35 44.14 27.21L44.26 27.33L44.16 27.23Q45.51 25.11 48.21 25.19L48.36 25.34L48.36 25.34Q53.33 25.33 53.45 30.69L53.45 30.70L53.51 30.76Q53.54 36.35 54.91 40.99L54.89 40.97L54.97 41.04Q53.22 40.33 51.47 40.14L51.28 39.95L51.46 40.12Q50.90 36.83 50.79 30.97ZM50.93 40.24L51.05 40.36L51.10 40.42Q52.09 40.50 53.20 40.76L53.30 40.86L53.14 40.71Q53.30 40.98 53.84 42.96L53.87 42.99L53.85 42.98Q56.84 43.94 58.85 45.39L58.66 45.20L58.76 45.30Q56.06 39.51 55.53 33.19L55.59 33.26L55.54 33.20Q55.24 29.52 53.83 27.96L53.90 28.02L53.87 27.99Q53.86 27.91 53.21 27.45L53.07 27.30L53.17 27.41Q52.87 26.84 52.22 26.08L52.28 26.13L52.23 26.01L52.31 26.09Q51.37 25.15 48.24 24.88L48.23 24.87L48.28 24.92Q47.49 24.85 46.08 25.19L46.24 25.35L46.14 25.25Q45.97 20.44 45.63 17.93L45.54 17.84L45.58 17.88Q44.76 17.71 43.28 17.40L43.27 17.39L43.42 17.54Q43.26 16.82 43.00 15.33L42.99 15.32L42.84 15.17Q40.03 14.34 38.16 12.78L37.99 12.61L38.13 12.75Q41.07 19.88 41.34 27.69L41.31 27.66L41.21 27.56Q41.66 35.51 39.11 42.86L38.97 42.71L38.95 42.70Q39.96 42.18 41.10 41.69L41.04 41.62L40.38 43.97L40.42 44.01Q43.48 42.61 45.45 42.42L45.44 42.40L45.37 42.34Q45.99 36.98 46.18 33.02L46.24 33.08L46.22 33.06Q46.33 31.23 48.28 30.13L48.21 30.06L48.31 30.16Q48.71 29.80 49.24 29.84L49.35 29.95L49.39 29.99Q49.56 30.00 49.90 30.04L49.73 29.87L50.36 30.15L50.20 29.99Q50.29 30.47 50.41 30.93L50.44 30.96L50.47 30.99Q50.51 36.89 51.00 40.32Z"/><path fill="#222" d="M93.22 29.68L93.11 29.57L93.14 29.60Q93.12 33.84 92.39 37.99L92.54 38.13L92.37 37.97Q94.72 37.50 97.81 37.39L97.78 37.37L97.85 37.43Q99.13 37.57 100.19 36.56L100.24 36.60L100.25 36.62Q101.25 35.54 101.25 34.20L101.30 34.25L101.22 34.18Q101.35 34.00 101.31 33.74L101.23 33.66L101.12 33.55Q101.15 30.80 98.91 29.96L98.77 29.82L98.83 29.88Q98.00 29.51 97.31 29.58L97.44 29.71L97.45 29.72Q96.22 29.48 95.19 29.52L95.22 29.55L95.28 29.61Q94.26 29.69 93.23 29.69ZM91.96 19.21L92.04 19.28L91.97 19.22Q92.89 22.57 93.16 26.95L93.13 26.92L93.16 26.96Q94.47 26.93 97.13 26.97L97.29 27.12L97.26 27.10Q100.24 27.19 100.59 23.64L100.52 23.58L100.44 23.50Q100.66 21.58 99.25 20.75L99.32 20.82L99.28 20.78Q98.36 20.24 93.95 19.60L93.94 19.59L93.98 19.63Q92.93 19.49 92.02 19.26ZM88.39 42.17L88.26 42.04L88.38 42.16Q90.87 35.52 90.61 28.13L90.52 28.05L90.53 28.06Q90.30 20.82 87.37 14.35L87.25 14.23L87.27 14.25Q90.99 16.72 97.22 16.97L97.23 16.98L97.37 17.12Q103.63 17.40 103.98 20.30L103.95 20.27L103.84 20.17Q104.30 23.06 102.89 25.72L102.89 25.72L102.86 25.69Q102.00 27.07 100.40 27.76L100.55 27.91L100.50 27.86Q104.10 28.49 104.33 33.86L104.42 33.95L104.29 33.82Q104.44 35.00 104.36 36.41L104.25 36.29L104.30 36.35Q104.32 37.73 103.39 38.66L103.43 38.71L103.33 38.61Q102.36 39.50 101.03 39.66L101.13 39.76L101.15 39.78Q99.63 39.82 98.56 39.82L98.52 39.78L98.55 39.80Q92.90 39.87 88.37 42.15ZM101.01 42.31L101.12 42.42L101.18 42.48Q102.15 42.57 104.02 42.69L103.90 42.57L103.89 42.56Q105.35 42.65 106.46 41.77L106.47 41.79L106.51 41.83Q107.28 40.88 107.16 39.32L107.18 39.34L107.08 39.24Q107.09 38.37 106.37 34.91L106.37 34.91L106.29 34.83Q105.55 31.54 103.68 30.05L103.80 30.17L103.35 29.30L103.35 29.30Q105.09 27.96 105.66 24.19L105.65 24.18L105.55 24.08Q105.68 22.91 105.60 21.51L105.63 21.53L105.68 21.58Q105.59 20.23 104.48 19.40L104.62 19.53L104.45 19.36Q104.27 19.30 104.16 19.26L104.09 19.19L104.07 19.17Q103.76 18.60 102.92 17.80L102.95 17.83L102.93 17.81Q101.46 16.79 97.23 16.60L97.18 16.55L97.23 16.60Q90.71 16.44 86.72 13.54L86.63 13.46L86.55 13.37Q89.84 20.40 90.15 27.94L90.17 27.97L90.24 28.04Q90.55 35.85 87.74 42.77L87.73 42.77L89.73 41.76L89.88 41.91Q89.46 43.01 88.96 44.15L89.00 44.19L88.87 44.06Q93.28 42.30 98.30 42.30L98.23 42.23L98.24 42.24Q99.65 42.24 101.10 42.39ZM98.93 31.81L98.93 31.81L99.03 31.91Q99.76 31.84 100.67 32.30L100.51 32.14L100.61 32.24Q100.78 32.63 100.93 33.69L100.91 33.68L100.83 33.59Q101.11 35.06 100.18 36.11L100.09 36.02L100.20 36.13Q99.23 37.14 97.82 37.02L97.76 36.96L96.40 37.20L96.25 37.05Q95.57 37.17 94.85 37.28L94.76 37.20L94.90 37.34Q95.13 35.44 95.21 31.97L95.25 32.01L95.28 32.05Q95.80 31.84 97.05 31.80L97.05 31.80L97.06 31.81Q98.35 31.81 98.96 31.84ZM97.89 22.21L98.04 22.35L98.37 22.31L98.39 22.33Q98.54 22.25 98.73 22.29L98.80 22.35L99.16 22.34L99.39 22.38L100.03 22.48L100.14 22.59Q100.10 22.70 100.10 23.01L100.20 23.11L100.16 23.60L100.24 23.68Q100.14 24.84 99.27 25.77L99.22 25.73L99.36 25.86Q98.41 26.73 97.20 26.73L97.16 26.69L97.26 26.79Q96.07 26.63 96.07 26.63L96.09 26.65L96.17 26.73Q94.86 26.72 95.21 26.72L95.09 26.60L95.08 26.59Q95.16 25.18 94.85 22.14L94.85 22.14L94.74 22.02Q96.34 22.18 97.87 22.18Z"/></svg>